<svg width="353" height="118" viewBox="0 0 353 118" fill="none" xmlns="http://www.w3.org/2000/svg">
<path d="M257.145 62.167C262.141 62.167 265.914 63.9157 268.462 67.4131C271.01 70.9107 272.284 76.0077 272.284 82.7031C272.284 89.3986 271.01 94.5207 268.462 98.0684C265.914 101.566 262.141 103.314 257.145 103.314C255.846 103.314 254.622 103.114 253.473 102.715C252.323 102.365 251.274 101.865 250.324 101.216C249.425 100.516 248.651 99.7168 248.001 98.8174C247.351 97.868 246.877 96.8686 246.577 95.8193H246.202V117.405H235.109V63.0664H246.202V69.6621H246.577C247.127 67.4636 248.376 65.6647 250.324 64.2656C252.323 62.8666 254.596 62.167 257.145 62.167ZM143.992 62.167C147.24 62.167 150.013 62.7162 152.312 63.8154C154.66 64.9147 156.559 66.3895 158.008 68.2383C159.507 70.087 160.581 72.2354 161.23 74.6836C161.93 77.082 162.28 79.6057 162.28 82.2539V85.5518H137.021V86.1514C137.022 88.7494 137.721 90.8232 139.12 92.3721C140.519 93.871 142.718 94.6201 145.716 94.6201C148.014 94.6201 149.888 94.1707 151.337 93.2715C152.786 92.3221 154.136 91.1976 155.385 89.8984L160.931 96.7939C159.182 98.8425 156.883 100.442 154.035 101.591C151.237 102.74 148.039 103.314 144.441 103.314C141.444 103.314 138.77 102.84 136.422 101.891C134.074 100.891 132.075 99.5173 130.426 97.7686C128.827 95.9698 127.603 93.7954 126.754 91.2471C125.955 88.6989 125.555 85.8509 125.555 82.7031C125.555 79.6052 125.954 76.8069 126.754 74.3086C127.553 71.7604 128.727 69.5868 130.276 67.7881C131.875 65.9894 133.824 64.6154 136.122 63.666C138.421 62.6667 141.044 62.167 143.992 62.167ZM208.769 62.167C211.666 62.167 214.24 62.6415 216.488 63.5908C218.786 64.5401 220.71 65.9143 222.259 67.7129C223.858 69.4617 225.082 71.6109 225.932 74.1592C226.781 76.7074 227.206 79.5554 227.206 82.7031C227.206 85.8509 226.781 88.6989 225.932 91.2471C225.082 93.7954 223.858 95.9698 222.259 97.7686C220.71 99.5671 218.786 100.941 216.488 101.891C214.24 102.84 211.666 103.314 208.769 103.314C205.871 103.314 203.272 102.84 200.974 101.891C198.725 100.941 196.801 99.5673 195.202 97.7686C193.653 95.9698 192.454 93.7954 191.604 91.2471C190.755 88.6989 190.33 85.8508 190.33 82.7031C190.33 79.5554 190.755 76.7074 191.604 74.1592C192.454 71.6109 193.653 69.4617 195.202 67.7129C196.801 65.9142 198.725 64.5402 200.974 63.5908C203.272 62.6415 205.871 62.167 208.769 62.167ZM296.673 62.167C299.92 62.167 302.694 62.7163 304.992 63.8154C307.341 64.9147 309.239 66.3895 310.688 68.2383C312.187 70.087 313.263 72.2353 313.912 74.6836C314.612 77.082 314.961 79.6057 314.961 82.2539V85.5518H289.703V86.1514C289.703 88.7494 290.403 90.8232 291.802 92.3721C293.201 93.8709 295.4 94.6201 298.397 94.6201C300.696 94.6201 302.57 94.1708 304.019 93.2715C305.468 92.3221 306.816 91.1975 308.065 89.8984L313.612 96.7939C311.864 98.8425 309.565 100.442 306.717 101.591C303.919 102.74 300.721 103.314 297.123 103.314C294.125 103.314 291.452 102.84 289.104 101.891C286.755 100.891 284.756 99.5172 283.107 97.7686C281.508 95.9698 280.284 93.7954 279.435 91.2471C278.635 88.6989 278.235 85.8508 278.235 82.7031C278.235 79.6052 278.635 76.8069 279.435 74.3086C280.234 71.7604 281.408 69.5868 282.957 67.7881C284.556 65.9893 286.505 64.6154 288.804 63.666C291.102 62.6668 293.725 62.167 296.673 62.167ZM336.136 62.167C338.184 62.167 339.983 62.3164 341.532 62.6162C343.131 62.866 344.53 63.2659 345.729 63.8154C346.979 64.3151 348.103 64.9652 349.103 65.7646C350.152 66.5141 351.177 67.3632 352.176 68.3125L345.805 74.833C344.556 73.5839 343.131 72.6097 341.532 71.9102C339.983 71.1607 338.384 70.7861 336.735 70.7861C334.837 70.7862 333.488 71.086 332.688 71.6855C331.889 72.2851 331.489 73.0847 331.489 74.084C331.489 75.1333 331.764 75.958 332.313 76.5576C332.913 77.1072 334.012 77.507 335.611 77.7568L340.033 78.3564C348.677 79.5057 353 83.4528 353 90.1982C353 92.0968 352.6 93.8455 351.801 95.4443C351.001 97.0433 349.852 98.4424 348.353 99.6416C346.904 100.791 345.13 101.69 343.031 102.34C340.983 102.989 338.684 103.314 336.136 103.314C332.338 103.314 329.14 102.715 326.542 101.516C323.944 100.267 321.621 98.5178 319.572 96.2695L326.093 89.6738C327.492 91.2226 329.041 92.4464 330.739 93.3457C332.438 94.2451 334.362 94.6953 336.511 94.6953C338.709 94.6953 340.234 94.3703 341.083 93.7207C341.932 93.0212 342.356 92.0964 342.356 90.9473C342.356 89.0988 341.033 88.0002 338.385 87.6504L334.112 87.125C325.268 86.0257 320.847 81.9787 320.847 74.9834C320.847 73.0847 321.196 71.3605 321.896 69.8115C322.645 68.2127 323.67 66.8639 324.969 65.7646C326.318 64.6155 327.917 63.7412 329.766 63.1416C331.664 62.4921 333.788 62.167 336.136 62.167ZM48.3428 102.415H32.6475C32.0952 98.7099 30.7869 94.1242 30.7754 94.084C30.1682 91.9279 30.0878 91.0659 29.3184 89.0811C28.5488 87.096 28.47 86.2438 27.918 86.7227C27.3661 87.2018 29.4679 95.6947 27.8457 95.7891C27.3996 91.6415 25.9095 85.8671 25.7861 85.7949C25.6584 85.7247 23.9481 86.2937 22.8291 85.1953C21.7085 84.0953 23.5749 80.1417 28.4473 78.9844C25.6588 80.5232 24.7328 81.6772 24.29 84.3008C29.6864 83.1498 32.2047 81.8385 34.2881 76.3438C28.4236 75.9005 25.7754 76.6345 22.084 79.5332C20.9501 78.9045 20.6771 78.2734 21.2119 76.3604C23.3407 73.0568 24.8959 71.6689 27.6904 69.2197C25.175 72.3106 22.456 75.9104 22.1045 76.7959C21.7535 77.681 22.5127 78.5557 22.5127 78.5557C24.8689 73.9917 28.3378 72.0093 30.4062 67.0195C32.4747 62.0294 26.7513 58.2556 26.7129 58.876C26.6756 59.4977 29.9323 64.4962 27.4932 66.9287C25.0532 69.3616 14.2126 82.3322 14.2646 83.0283C14.3167 83.7244 14.5527 84.0692 14.707 84.1865L9.40039 93.0215L10.9854 93.5684L9.48828 94.04C10.022 95.0059 11.1254 95.1804 12.3057 94.9932C13.4862 94.8057 15.2578 93.542 15.2578 93.542L16.2129 93.7158C15.1212 94.6679 13.8765 95.3708 12.4414 95.5801C11.0064 95.7893 10.9766 95.2697 10.7148 95.3867C10.4547 95.5048 12.1674 97.0325 14.0713 96.6357C15.9761 96.2387 21.4361 92.8378 21.4844 92.4062C21.5321 91.9793 21.667 90.6249 21.6699 90.5957L21.25 89.6914L21.3135 89.4297C21.8395 89.7401 22.0932 89.9877 22.4414 90.6143L22.6729 92.3037C22.6853 92.2937 23.1588 91.9141 23.625 91.4521C24.0974 90.9844 24.3955 91.4716 24.1074 92.0947C23.8188 92.7182 21.1875 94.9111 21.1875 94.9111C20.3111 98.865 19.7085 100.825 18.8213 102.415H18.3535L19.4941 96.083L17.0508 97.4902L16.0459 102.415H0L17.2383 50.0996H31.3291L48.3428 102.415ZM77.4658 62.167C81.5129 62.167 84.5607 63.516 86.6094 66.2139C88.708 68.9121 89.7578 72.7602 89.7578 77.7568V102.415H78.665V78.6562C78.665 76.1081 78.2652 74.2344 77.4658 73.0352C76.6664 71.786 75.242 71.1611 73.1934 71.1611C72.2941 71.1612 71.4196 71.2863 70.5703 71.5361C69.721 71.736 68.9465 72.0854 68.2471 72.585C67.5975 73.0846 67.0726 73.7095 66.6729 74.459C66.2733 75.1583 66.0733 75.9826 66.0732 76.9316V102.415H54.9814V63.0664H66.0732V69.7373H66.5234C67.223 67.6887 68.4475 65.914 70.1963 64.415C71.9451 62.9163 74.3682 62.167 77.4658 62.167ZM112.82 63.0664H120.615V71.6855H112.82V93.7959H120.016V102.415H113.42C109.573 102.415 106.649 101.441 104.65 99.4922C102.702 97.5435 101.728 94.6948 101.728 90.9473V71.6855H96.1816V63.0664H98.9541C100.453 63.0664 101.478 62.7161 102.027 62.0166C102.577 61.2671 102.852 60.218 102.852 58.8691V52.4238H112.82V63.0664ZM181.206 93.7959H186.153V102.415H181.132C177.334 102.415 174.536 101.49 172.737 99.6416C170.989 97.7928 170.114 95.1197 170.114 91.6221V46.9521H181.206V93.7959ZM208.769 70.9365C206.57 70.9365 204.871 71.6109 203.672 72.96C202.473 74.309 201.873 76.2323 201.873 78.7305V86.751C201.873 89.2491 202.473 91.1725 203.672 92.5215C204.871 93.8705 206.57 94.5449 208.769 94.5449C210.967 94.5448 212.665 93.8704 213.864 92.5215C215.063 91.1725 215.663 89.2491 215.663 86.751V78.7305C215.663 76.2323 215.063 74.309 213.864 72.96C212.665 71.611 210.967 70.9366 208.769 70.9365ZM253.473 71.1611C251.374 71.1611 249.625 71.6861 248.226 72.7354C246.877 73.7346 246.202 75.1332 246.202 76.9316V88.5498C246.202 90.3483 246.877 91.7721 248.226 92.8213C249.625 93.8206 251.374 94.3203 253.473 94.3203C255.571 94.3202 257.295 93.5954 258.644 92.1465C260.042 90.6476 260.742 88.6494 260.742 86.1514V79.3301C260.742 76.8319 260.043 74.8581 258.644 73.4092C257.295 71.9104 255.571 71.1612 253.473 71.1611ZM144.217 70.3369C141.968 70.337 140.195 71.086 138.896 72.585C137.646 74.0339 137.022 75.9825 137.021 78.4307V79.0303H150.812V78.3564C150.812 75.9581 150.263 74.034 149.164 72.585C148.115 71.086 146.465 70.3369 144.217 70.3369ZM296.898 70.3369C294.65 70.3369 292.875 71.086 291.576 72.585C290.327 74.0339 289.703 75.9826 289.703 78.4307V79.0303H303.493V78.3564C303.493 75.958 302.944 74.034 301.845 72.585C300.795 71.0861 299.147 70.337 296.898 70.3369ZM20.4678 58.8164C23.4944 62.0511 24.0564 64.7469 22.5381 67.9551C21.025 71.1522 18.6655 75.3561 18.6494 75.3848C21.7191 72.3135 23.0421 70.4341 24.2178 66.6133C24.6626 67.4763 24.425 68.356 23.3516 70.4492C25.82 67.5006 26.7676 65.4528 25.5928 62.7334C24.418 60.0141 23.0815 59.0222 20.4678 58.8164Z" fill="white"/>
<path d="M12.1318 90.9908C14.1005 87.7302 17.1944 83.2885 17.5966 82.9974C17.9989 82.7062 19.1532 83.205 18.7099 84.0125C18.2667 84.8201 17.8485 85.055 16.1895 85.5121L16.8347 86.0548L12.1318 90.9908Z" fill="white"/>
<path d="M15.4772 21.3601L11.1092 26.6401V35.9521H3.81319V2.44815H11.1092V18.3841H11.3972L16.1492 11.9041L23.6852 2.44815H31.9412L20.6612 16.2241L32.9492 35.9521H24.3572L15.4772 21.3601ZM35.9391 35.9521V30.1441H40.2591V8.25615H35.9391V2.44815H51.8751V8.25615H47.5551V30.1441H51.8751V35.9521H35.9391ZM65.7298 35.9521L54.9298 2.44815H62.3218L67.3138 18.5281L69.9538 29.0401H70.0978L72.6418 18.5281L77.6338 2.44815H84.7858L73.8898 35.9521H65.7298ZM92.3406 8.06415C90.9006 8.06415 89.8446 7.74415 89.1726 7.10415C88.5326 6.43215 88.2126 5.58415 88.2126 4.56015V3.50415C88.2126 2.48015 88.5326 1.64815 89.1726 1.00815C89.8446 0.336147 90.9006 0.00014782 92.3406 0.00014782C93.7806 0.00014782 94.8206 0.336147 95.4606 1.00815C96.1326 1.64815 96.4686 2.48015 96.4686 3.50415V4.56015C96.4686 5.58415 96.1326 6.43215 95.4606 7.10415C94.8206 7.74415 93.7806 8.06415 92.3406 8.06415ZM88.7886 10.7521H95.8926V35.9521H88.7886V10.7521ZM100.651 45.0721V39.1681H124.459V45.0721H100.651Z" fill="#C2410C"/>
</svg>
