<svg width="353" height="118" viewBox="0 0 353 118" fill="none" xmlns="http://www.w3.org/2000/svg">
<path d="M257.145 62.2148C262.141 62.2148 265.914 63.9635 268.462 67.4609C271.01 70.9586 272.284 76.0555 272.284 82.751C272.284 89.4465 271.01 94.5686 268.462 98.1162C265.914 101.614 262.141 103.362 257.145 103.362C255.846 103.362 254.622 103.162 253.473 102.763C252.323 102.413 251.274 101.913 250.324 101.264C249.425 100.564 248.651 99.7646 248.001 98.8652C247.351 97.9159 246.877 96.9165 246.577 95.8672H246.202V117.453H235.109V63.1143H246.202V69.71H246.577C247.127 67.5115 248.376 65.7125 250.324 64.3135C252.323 62.9145 254.596 62.2149 257.145 62.2148ZM143.992 62.2148C147.24 62.2149 150.013 62.7641 152.312 63.8633C154.66 64.9625 156.559 66.4374 158.008 68.2861C159.507 70.1348 160.581 72.2832 161.23 74.7314C161.93 77.1298 162.28 79.6535 162.28 82.3018V85.5996H137.021V86.1992C137.022 88.7973 137.721 90.871 139.12 92.4199C140.519 93.9189 142.718 94.6679 145.716 94.668C148.014 94.668 149.888 94.2186 151.337 93.3193C152.786 92.37 154.136 91.2454 155.385 89.9463L160.931 96.8418C159.182 98.8904 156.883 100.489 154.035 101.639C151.237 102.788 148.039 103.362 144.441 103.362C141.444 103.362 138.77 102.888 136.422 101.938C134.074 100.939 132.075 99.5652 130.426 97.8164C128.827 96.0176 127.603 93.8432 126.754 91.2949C125.955 88.7467 125.555 85.8987 125.555 82.751C125.555 79.6531 125.954 76.8547 126.754 74.3564C127.553 71.8083 128.727 69.6347 130.276 67.8359C131.875 66.0373 133.824 64.6632 136.122 63.7139C138.421 62.7145 141.044 62.2148 143.992 62.2148ZM208.769 62.2148C211.666 62.2149 214.24 62.6894 216.488 63.6387C218.786 64.588 220.71 65.9622 222.259 67.7607C223.858 69.5096 225.082 71.6587 225.932 74.207C226.781 76.7552 227.206 79.6032 227.206 82.751C227.206 85.8987 226.781 88.7467 225.932 91.2949C225.082 93.8432 223.858 96.0176 222.259 97.8164C220.71 99.615 218.786 100.989 216.488 101.938C214.24 102.888 211.666 103.362 208.769 103.362C205.871 103.362 203.272 102.888 200.974 101.938C198.725 100.989 196.801 99.6151 195.202 97.8164C193.653 96.0176 192.454 93.8432 191.604 91.2949C190.755 88.7467 190.33 85.8987 190.33 82.751C190.33 79.6032 190.755 76.7552 191.604 74.207C192.454 71.6587 193.653 69.5096 195.202 67.7607C196.801 65.962 198.725 64.588 200.974 63.6387C203.272 62.6894 205.871 62.2148 208.769 62.2148ZM296.673 62.2148C299.92 62.2148 302.694 62.7642 304.992 63.8633C307.341 64.9625 309.239 66.4374 310.688 68.2861C312.187 70.1349 313.263 72.2831 313.912 74.7314C314.612 77.1298 314.961 79.6536 314.961 82.3018V85.5996H289.703V86.1992C289.703 88.7973 290.403 90.871 291.802 92.4199C293.201 93.9187 295.4 94.668 298.397 94.668C300.696 94.6679 302.57 94.2187 304.019 93.3193C305.468 92.37 306.816 91.2454 308.065 89.9463L313.612 96.8418C311.864 98.8904 309.565 100.489 306.717 101.639C303.919 102.788 300.721 103.362 297.123 103.362C294.125 103.362 291.452 102.888 289.104 101.938C286.755 100.939 284.756 99.5651 283.107 97.8164C281.508 96.0176 280.284 93.8432 279.435 91.2949C278.635 88.7467 278.235 85.8987 278.235 82.751C278.235 79.6531 278.635 76.8547 279.435 74.3564C280.234 71.8083 281.408 69.6347 282.957 67.8359C284.556 66.0371 286.505 64.6632 288.804 63.7139C291.102 62.7146 293.725 62.2149 296.673 62.2148ZM336.136 62.2148C338.184 62.2148 339.983 62.3643 341.532 62.6641C343.131 62.9139 344.53 63.3137 345.729 63.8633C346.979 64.3629 348.103 65.013 349.103 65.8125C350.152 66.562 351.177 67.411 352.176 68.3604L345.805 74.8809C344.556 73.6318 343.131 72.6575 341.532 71.958C339.983 71.2086 338.384 70.834 336.735 70.834C334.837 70.834 333.488 71.1339 332.688 71.7334C331.889 72.333 331.489 73.1325 331.489 74.1318C331.489 75.1811 331.764 76.0059 332.313 76.6055C332.913 77.1551 334.012 77.5549 335.611 77.8047L340.033 78.4043C348.677 79.5535 353 83.5006 353 90.2461C353 92.1447 352.6 93.8934 351.801 95.4922C351.001 97.0911 349.852 98.4903 348.353 99.6895C346.904 100.839 345.13 101.738 343.031 102.388C340.983 103.037 338.684 103.362 336.136 103.362C332.338 103.362 329.14 102.763 326.542 101.563C323.944 100.314 321.621 98.5656 319.572 96.3174L326.093 89.7217C327.492 91.2704 329.041 92.4942 330.739 93.3936C332.438 94.2929 334.362 94.7432 336.511 94.7432C338.709 94.7432 340.234 94.4181 341.083 93.7686C341.932 93.069 342.356 92.1442 342.356 90.9951C342.356 89.1467 341.033 88.048 338.385 87.6982L334.112 87.1729C325.268 86.0736 320.847 82.0265 320.847 75.0312C320.847 73.1325 321.196 71.4083 321.896 69.8594C322.645 68.2606 323.67 66.9117 324.969 65.8125C326.318 64.6633 327.917 63.789 329.766 63.1895C331.664 62.54 333.788 62.2149 336.136 62.2148ZM48.3428 102.463H32.6475C32.0952 98.7577 30.7869 94.1721 30.7754 94.1318C30.1682 91.9757 30.0878 91.1137 29.3184 89.1289C28.5488 87.1438 28.47 86.2916 27.918 86.7705C27.3661 87.2496 29.4679 95.7426 27.8457 95.8369C27.3996 91.6894 25.9095 85.9149 25.7861 85.8428C25.6584 85.7726 23.9481 86.3416 22.8291 85.2432C21.7085 84.1432 23.5749 80.1895 28.4473 79.0322C25.6588 80.5711 24.7328 81.725 24.29 84.3486C29.6864 83.1976 32.2047 81.8863 34.2881 76.3916C28.4236 75.9484 25.7754 76.6824 22.084 79.5811C20.9501 78.9523 20.6771 78.3213 21.2119 76.4082C23.3407 73.1047 24.8959 71.7167 27.6904 69.2676C25.175 72.3585 22.456 75.9582 22.1045 76.8438C21.7535 77.7288 22.5127 78.6035 22.5127 78.6035C24.8689 74.0396 28.3378 72.0571 30.4062 67.0674C32.4747 62.0772 26.7513 58.3035 26.7129 58.9238C26.6756 59.5455 29.9323 64.544 27.4932 66.9766C25.0532 69.4095 14.2126 82.3801 14.2646 83.0762C14.3167 83.7723 14.5527 84.117 14.707 84.2344L9.40039 93.0693L10.9854 93.6162L9.48828 94.0879C10.022 95.0537 11.1254 95.2283 12.3057 95.041C13.4862 94.8535 15.2578 93.5898 15.2578 93.5898L16.2129 93.7637C15.1212 94.7158 13.8765 95.4187 12.4414 95.6279C11.0064 95.8372 10.9766 95.3175 10.7148 95.4346C10.4547 95.5527 12.1674 97.0803 14.0713 96.6836C15.9761 96.2865 21.4361 92.8856 21.4844 92.4541C21.5321 92.0272 21.667 90.6728 21.6699 90.6436L21.25 89.7393L21.3135 89.4775C21.8395 89.7879 22.0932 90.0356 22.4414 90.6621L22.6729 92.3516C22.6853 92.3416 23.1588 91.9619 23.625 91.5C24.0974 91.0322 24.3955 91.5195 24.1074 92.1426C23.8188 92.766 21.1875 94.959 21.1875 94.959C20.3111 98.9128 19.7085 100.873 18.8213 102.463H18.3535L19.4941 96.1309L17.0508 97.5381L16.0459 102.463H0L17.2383 50.1475H31.3291L48.3428 102.463ZM77.4658 62.2148C81.5129 62.2148 84.5607 63.5638 86.6094 66.2617C88.708 68.9599 89.7578 72.808 89.7578 77.8047V102.463H78.665V78.7041C78.665 76.156 78.2652 74.2822 77.4658 73.083C76.6664 71.8338 75.242 71.209 73.1934 71.209C72.2941 71.209 71.4196 71.3342 70.5703 71.584C69.721 71.7839 68.9465 72.1332 68.2471 72.6328C67.5975 73.1325 67.0726 73.7573 66.6729 74.5068C66.2733 75.2062 66.0733 76.0305 66.0732 76.9795V102.463H54.9814V63.1143H66.0732V69.7852H66.5234C67.223 67.7365 68.4475 65.9619 70.1963 64.4629C71.9451 62.9642 74.3682 62.2149 77.4658 62.2148ZM112.82 63.1143H120.615V71.7334H112.82V93.8438H120.016V102.463H113.42C109.573 102.463 106.649 101.489 104.65 99.54C102.702 97.5913 101.728 94.7426 101.728 90.9951V71.7334H96.1816V63.1143H98.9541C100.453 63.1143 101.478 62.764 102.027 62.0645C102.577 61.315 102.852 60.2659 102.852 58.917V52.4717H112.82V63.1143ZM181.206 93.8438H186.153V102.463H181.132C177.334 102.463 174.536 101.538 172.737 99.6895C170.989 97.8407 170.114 95.1675 170.114 91.6699V47H181.206V93.8438ZM208.769 70.9844C206.57 70.9844 204.871 71.6587 203.672 73.0078C202.473 74.3568 201.873 76.2802 201.873 78.7783V86.7988C201.873 89.2969 202.473 91.2203 203.672 92.5693C204.871 93.9184 206.57 94.5928 208.769 94.5928C210.967 94.5927 212.665 93.9183 213.864 92.5693C215.063 91.2203 215.663 89.2969 215.663 86.7988V78.7783C215.663 76.2802 215.063 74.3568 213.864 73.0078C212.665 71.6589 210.967 70.9845 208.769 70.9844ZM253.473 71.209C251.374 71.209 249.625 71.7339 248.226 72.7832C246.877 73.7824 246.202 75.181 246.202 76.9795V88.5977C246.202 90.3962 246.877 91.82 248.226 92.8691C249.625 93.8685 251.374 94.3682 253.473 94.3682C255.571 94.3681 257.295 93.6433 258.644 92.1943C260.042 90.6954 260.742 88.6973 260.742 86.1992V79.3779C260.742 76.8798 260.043 74.906 258.644 73.457C257.295 71.9583 255.571 71.2091 253.473 71.209ZM144.217 70.3848C141.968 70.3848 140.195 71.1339 138.896 72.6328C137.646 74.0818 137.022 76.0304 137.021 78.4785V79.0781H150.812V78.4043C150.812 76.006 150.263 74.0818 149.164 72.6328C148.115 71.1338 146.465 70.3848 144.217 70.3848ZM296.898 70.3848C294.65 70.3848 292.875 71.1338 291.576 72.6328C290.327 74.0817 289.703 76.0305 289.703 78.4785V79.0781H303.493V78.4043C303.493 76.0059 302.944 74.0818 301.845 72.6328C300.796 71.1339 299.147 70.3849 296.898 70.3848ZM20.4678 58.8643C23.4944 62.099 24.0564 64.7948 22.5381 68.0029C21.025 71.2001 18.6655 75.404 18.6494 75.4326C21.7191 72.3614 23.0421 70.482 24.2178 66.6611C24.6626 67.5241 24.425 68.4039 23.3516 70.4971C25.82 67.5485 26.7676 65.5007 25.5928 62.7812C24.418 60.0619 23.0815 59.07 20.4678 58.8643Z" fill="#C2410C"/>
<path d="M12.1318 91.0386C14.1005 87.7781 17.1944 83.3363 17.5966 83.0452C17.9989 82.7541 19.1532 83.2528 18.7099 84.0604C18.2667 84.8679 17.8485 85.1028 16.1895 85.56L16.8347 86.1026L12.1318 91.0386Z" fill="#C2410C"/>
<path d="M15.4772 21.408L11.1092 26.688V36H3.81319V2.496H11.1092V18.432H11.3972L16.1492 11.952L23.6852 2.496H31.9412L20.6612 16.272L32.9492 36H24.3572L15.4772 21.408ZM35.9391 36V30.192H40.2591V8.304H35.9391V2.496H51.8751V8.304H47.5551V30.192H51.8751V36H35.9391ZM65.7298 36L54.9298 2.496H62.3218L67.3138 18.576L69.9538 29.088H70.0978L72.6418 18.576L77.6338 2.496H84.7858L73.8898 36H65.7298ZM92.3406 8.112C90.9006 8.112 89.8446 7.792 89.1726 7.152C88.5326 6.48 88.2126 5.632 88.2126 4.608V3.552C88.2126 2.528 88.5326 1.696 89.1726 1.056C89.8446 0.383999 90.9006 0.0479994 92.3406 0.0479994C93.7806 0.0479994 94.8206 0.383999 95.4606 1.056C96.1326 1.696 96.4686 2.528 96.4686 3.552V4.608C96.4686 5.632 96.1326 6.48 95.4606 7.152C94.8206 7.792 93.7806 8.112 92.3406 8.112ZM88.7886 10.8H95.8926V36H88.7886V10.8ZM100.651 45.12V39.216H124.459V45.12H100.651Z" fill="#9CA3AF"/>
</svg>
