<?xml version="1.0" encoding="UTF-8"?>
<svg xmlns="http://www.w3.org/2000/svg" width="138.535mm" height="32mm" version="1.1" viewBox="0 0 392.698 90.709">
  <!-- Generator: Adobe Illustrator 29.5.1, SVG Export Plug-In . SVG Version: 2.1.0 Build 141)  -->
  <g id="Schutzraum">
    <rect y="0" width="392.698" height="90.709" fill="none"/>
    <rect y="0" width="392.698" height="90.709" fill="none"/>
    <rect y="0" width="392.698" height="90.709" fill="none"/>
    <rect y="0" width="392.698" height="90.709" fill="none"/>
    <rect y="0" width="392.698" height="90.709" fill="none"/>
  </g>
  <g id="Logo">
    <g>
      <path d="M317.88,67.852h4.345v-9.113h2.323c1.75,0,2.505,1.026,2.566,2.716l.12,4.134c.03.844.121,1.659.543,2.263h4.707v-.181c-.814-.423-.935-1.599-.965-3.862-.06-4.557-.513-6.187-3.47-6.579v-.06c2.444-.513,3.591-2.444,3.591-5.311,0-3.682-2.173-5.553-5.734-5.553h-8.026v21.546ZM322.225,49.505h2.052c1.961,0,3.018.996,3.018,2.988,0,2.323-1.178,3.228-3.26,3.228h-1.81v-6.216Z" fill="#8ebae5"/>
      <path d="M253.817,46.307v15.027c0,5.764,3.349,6.941,6.88,6.941s6.88-1.448,6.88-6.941v-15.027h-4.345v15.027c0,2.143-.513,3.742-2.535,3.742s-2.535-1.599-2.535-3.742v-15.027h-4.345Z" fill="#8ebae5"/>
    </g>
    <polygon points="268.641 46.307 268.641 67.852 272.624 67.852 272.624 52.765 272.684 52.765 277.995 67.852 282.944 67.852 282.944 46.307 278.961 46.307 278.961 61.063 278.901 61.063 273.65 46.307 268.641 46.307" fill="#8ebae5"/>
    <rect x="284.061" y="46.307" width="4.345" height="21.545" fill="#8ebae5"/>
    <polygon points="288.705 46.307 293.653 67.852 299.236 67.852 304.184 46.307 299.688 46.307 296.49 62.24 296.4 62.24 293.352 46.307 288.705 46.307" fill="#8ebae5"/>
    <polygon points="304.571 46.307 304.571 67.852 316.913 67.852 316.913 64.292 308.916 64.292 308.916 58.498 316.159 58.498 316.159 54.937 308.916 54.937 308.916 49.868 316.611 49.868 316.611 46.307 304.571 46.307" fill="#8ebae5"/>
    <path d="M332.001,61.123v.875c0,3.984,1.931,6.277,6.85,6.277,4.707,0,7.483-2.052,7.483-6.609,0-2.625-.845-4.284-4.104-5.703l-3.349-1.448c-1.841-.785-2.233-1.599-2.233-2.927,0-1.267.513-2.505,2.474-2.505,1.659,0,2.354,1.177,2.354,3.199h4.164v-.604c0-4.134-2.807-5.793-6.669-5.793-4.104,0-6.668,2.142-6.668,6.336,0,3.591,1.78,5.191,5.642,6.518,2.867.996,3.863,1.72,3.863,3.682,0,1.81-1.268,2.655-2.595,2.655-2.294,0-2.867-1.297-2.867-3.319v-.634h-4.345Z" fill="#8ebae5"/>
    <rect x="346.902" y="46.307" width="4.345" height="21.545" fill="#8ebae5"/>
    <polygon points="373.817 46.307 370.799 54.635 370.739 54.635 367.903 46.307 351.817 46.307 351.817 49.868 356.524 49.868 356.524 67.852 360.87 67.852 360.87 49.868 364.535 49.868 368.596 59.373 368.596 67.852 372.942 67.852 372.942 59.373 378.525 46.307 373.817 46.307" fill="#8ebae5"/>
    <g>
      <path d="M215.646,44.347h-7.2v-21.641h11.807c3.202-.001,5.963,2.072,6.864,4.82.834,2.546.121,5.312-1.761,7.281.25.678.494,1.209.726,1.818.523,1.205,1.001,2.41,1.524,3.6l1.713,4.122h-7.301s-.058-.174-.116-.247c-.29-.638-.552-1.321-.842-1.959l-1.756-4.166c-.697-1.684-1.394-3.275-2.09-4.958.869-.024,1.519.139,2.358-.247.59-.29,1.484-1.011,1.507-2.394-.023-.685-.213-1.204-.666-1.744-.455-.502-1.113-.874-1.97-.886,0,0-2.798-.001-2.797,0v16.601Z" fill="#00549f"/>
      <path d="M290.852,22.706v21.641h-7.2v-8.824h-5.041v8.824c-1.306,0-2.714-.014-4.02,0h-3.18v-16.633h-5.036v16.633h-7.2v-16.633h-5.079v16.633h-7.417c-1.292-3.12-2.656-6.27-3.919-9.376-.145-.653-.29-1.307-.479-1.945v11.321h-7.432c-1.473-3.425-2.888-6.782-4.357-10.258-.509-1.204-.926-2.184-1.452-3.436l-.072-.164-1.144-2.685-1.638-3.835c-.144-.435-.376-.828-.522-1.263h7.415c1.524,3.701,3.062,7.359,4.659,11.002l.044.087c-.058-.421-.19-.958-.262-1.364v-6.459c.014-1.031,0-2.207,0-3.266h7.431c.094.236.146.363.218.552.871,2.046,1.699,4.078,2.57,6.11l1.945,4.427c-.044-.465-.146-.914-.204-1.364v-9.725h29.131v7.809h5.041v-7.809h7.2Z" fill="#00549f"/>
    </g>
    <path d="M311.736,36.193l2.092-9.73h.06l2.092,9.73h-4.244ZM297.309,36.193l2.091-9.73h.06l2.092,9.73h-4.243ZM316.556,22.704h-5.396l-4.516,17.059-4.516-17.059h-5.396l-5.729,21.643h4.547l1-4.577h5.761l.999,4.577h6.668l1-4.577h5.76l1,4.577h4.547l-5.729-21.643Z" fill="#8ebae5"/>
    <path d="M335.285,30.089c0-3.138-.452-7.695-6.669-7.695-6.517,0-7.333,4.647-7.333,11.195s.816,11.195,7.333,11.195c5.703,0,6.85-4.013,6.85-8.66h-4.345c0,4.647-1.147,5.462-2.716,5.462-1.871,0-2.776-1.177-2.776-7.695,0-6.095.513-8.298,2.716-8.298,1.961,0,2.595,1.358,2.595,4.496h4.345Z" fill="#8ebae5"/>
    <polygon points="336.324 44.347 340.688 44.347 340.688 34.739 345.78 34.739 345.78 44.347 350.145 44.347 350.145 22.706 345.78 22.706 345.78 30.981 340.688 30.981 340.688 22.706 336.324 22.706 336.324 44.347" fill="#8ebae5"/>
    <polygon points="351.091 22.702 351.091 44.347 363.491 44.347 363.491 40.77 355.457 40.77 355.457 34.949 362.733 34.949 362.733 31.372 355.457 31.372 355.457 26.279 363.187 26.279 363.187 22.702 351.091 22.702" fill="#8ebae5"/>
    <polygon points="364.139 22.706 364.139 44.347 368.14 44.347 368.14 29.192 368.2 29.192 373.535 44.347 378.506 44.347 378.506 22.706 374.505 22.706 374.505 37.527 374.444 37.527 369.17 22.706 364.139 22.706" fill="#8ebae5"/>
    <rect x="193.773" y="22.677" width="1" height="45.355" fill="#00549f"/>
    <path d="M95.274,38.266l-3.294,22.011h-.083l-3.502-22.011h-5.753l-3.501,22.011h-.083l-3.294-22.011h-5.753l5.42,29.765h6.711l3.335-21.594h.083l3.336,21.594h6.711l5.42-29.765h-5.753ZM48.739,38.266l7.974,29.765h17.051l-1.319-4.92h-11.046l-2.145-8.003h10.005l-1.318-4.919h-10.005l-1.877-7.004h10.63l-1.317-4.919h-16.633ZM39.33,38.266l-7.879,29.765h6.254l1.375-6.295h7.921l1.376,6.295h6.252l-7.878-29.765h-7.421ZM42.998,43.436h.084l2.876,13.381h-5.836l2.876-13.381ZM24.323,68.031h6.003v-29.765h-6.003v29.765Z" fill="#00549f"/>
    <polygon points="27.007 30.595 21.015 33.956 14.183 29.952 27.153 22.677 27.007 30.595" fill="#407fb7"/>
    <polygon points="27.009 30.595 32.874 34.171 39.848 30.419 27.152 22.677 27.009 30.595" fill="#8ebae5"/>
    <polygon points="21.015 33.957 21.01 40.827 14.172 44.822 14.184 29.952 21.015 33.957" fill="#00549f"/>
    <g>
      <path d="M177.919,62.652h-.7v.94h.7v3.08c0,.273.016.5.05.68.033.18.095.325.185.435s.218.188.385.235c.166.047.386.07.66.07.16,0,.311-.007.455-.02.143-.013.291-.027.445-.04v-.96c-.047.007-.097.012-.15.015-.054.003-.107.005-.16.005-.2,0-.332-.045-.395-.135-.064-.09-.095-.242-.095-.455v-2.91h.8v-.94h-.8v-1.54h-1.38v1.54ZM174.656,68.032h1.38v-4.44h.8v-.94h-.8v-.47c0-.153.04-.263.12-.33s.217-.1.41-.1h.13c.06,0,.107.003.14.01v-.98c-.253-.02-.5-.03-.74-.03-.22,0-.42.022-.6.065s-.332.115-.455.215-.218.233-.285.4-.1.37-.1.61v.61h-.7v.94h.7v4.44ZM172.005,66.402c0,.153-.027.282-.08.385s-.122.188-.205.255-.175.115-.275.145-.197.045-.29.045c-.187,0-.32-.073-.4-.22s-.12-.323-.12-.53c0-.24.06-.43.18-.57s.32-.24.6-.3c.087-.02.183-.052.29-.095s.207-.102.3-.175v1.06ZM170.725,64.302v-.15c0-.213.053-.383.16-.51s.267-.19.48-.19c.233,0,.398.058.495.175s.145.278.145.485c0,.18-.04.317-.12.41s-.223.167-.43.22l-.78.21c-.24.067-.445.143-.615.23s-.31.195-.42.325-.192.287-.245.47-.08.402-.08.655c0,.18.023.362.07.545s.12.348.22.495.233.267.4.36.37.14.61.14c.333,0,.605-.047.815-.14s.395-.28.555-.56h.02c.02.093.042.188.065.285s.058.188.105.275h1.32c-.067-.16-.112-.31-.135-.45s-.035-.337-.035-.59v-2.83c0-.24-.025-.462-.075-.665s-.145-.378-.285-.525-.338-.26-.595-.34-.588-.12-.995-.12c-.26,0-.505.028-.735.085s-.43.15-.6.28-.305.302-.405.515-.15.473-.15.78v.13h1.24ZM164.459,68.032h1.38v-3.57c0-.593.243-.89.73-.89.207,0,.357.055.45.165s.14.305.14.585v3.71h1.38v-3.99c0-.54-.118-.93-.355-1.17s-.575-.36-1.015-.36c-.607,0-1.043.23-1.31.69h-.02v-2.31h-1.38v7.14ZM163.671,64.591c0-.64-.162-1.147-.485-1.52s-.805-.56-1.445-.56c-.32,0-.613.043-.88.13s-.497.238-.69.455-.343.507-.45.87-.16.822-.16,1.375c0,.54.043.992.13,1.355s.215.653.385.87.383.372.64.465.558.14.905.14c.733,0,1.258-.19,1.575-.57s.475-.923.475-1.63h-1.32c0,.44-.053.76-.16.96s-.277.3-.51.3c-.153,0-.278-.035-.375-.105s-.172-.182-.225-.335-.09-.348-.11-.585-.03-.522-.03-.855c0-.307.01-.577.03-.81s.057-.425.11-.575.132-.263.235-.34.242-.115.415-.115c.127,0,.232.032.315.095s.147.147.19.25.073.22.09.35.025.258.025.385h1.32ZM155.001,66.271v.19c0,.26.03.495.09.705s.165.39.315.54.352.265.605.345c.254.08.577.12.97.12.287,0,.554-.035.8-.105.247-.07.459-.175.635-.315.177-.14.315-.317.415-.53s.15-.46.15-.74c0-.407-.09-.728-.27-.965s-.486-.428-.92-.575l-.83-.28c-.233-.073-.391-.163-.475-.27-.083-.107-.125-.227-.125-.36,0-.193.065-.338.195-.435s.282-.145.455-.145c.227,0,.385.065.475.195s.135.335.135.615h1.24v-.22c0-.487-.15-.863-.45-1.13s-.763-.4-1.39-.4c-.353,0-.655.043-.905.13s-.455.203-.615.35-.276.318-.35.515c-.073.197-.11.405-.11.625,0,.38.097.692.29.935.194.243.48.432.86.565l.97.35c.134.053.25.125.35.215s.15.222.15.395c0,.213-.063.373-.19.48-.126.107-.296.16-.51.16-.233,0-.411-.072-.535-.215-.123-.143-.185-.332-.185-.565v-.18h-1.24ZM152.366,62.652h-.7v.94h.7v3.08c0,.273.017.5.05.68.034.18.095.325.185.435s.219.188.385.235c.167.047.387.07.66.07.16,0,.312-.007.455-.02.144-.013.292-.027.445-.04v-.96c-.046.007-.096.012-.15.015-.053.003-.106.005-.16.005-.2,0-.331-.045-.395-.135-.063-.09-.095-.242-.095-.455v-2.91h.8v-.94h-.8v-1.54h-1.38v1.54ZM148.439,68.032h1.379v-3.23c0-.18.03-.332.091-.455.06-.123.139-.223.239-.3s.21-.132.33-.165.241-.05.36-.05c.074,0,.145.002.215.005s.142.008.215.015v-1.32c-.04-.007-.081-.012-.125-.015-.043-.003-.085-.005-.125-.005-.286,0-.53.078-.73.235s-.37.365-.51.625h-.02v-.72h-1.319v5.38ZM146.056,68.032h1.38v-5.38h-1.38v5.38ZM146.056,61.992h1.38v-1.18h-1.38v1.18ZM139.685,68.032h1.6l.67-3.82h.02l.71,3.82h1.57l1.16-5.38h-1.32l-.65,3.82h-.02l-.71-3.82h-1.5l-.67,3.82h-.02l-.63-3.82h-1.38l1.17,5.38ZM135.437,64.732v-.21c0-.127.011-.253.035-.38.023-.127.061-.242.115-.345.053-.103.125-.187.215-.25s.205-.095.345-.095.255.028.345.085.16.14.21.25.085.243.105.4.033.338.04.545h-1.41ZM138.167,65.552v-.31c0-.413-.027-.788-.08-1.125-.054-.337-.154-.623-.3-.86-.147-.237-.349-.42-.605-.55-.257-.13-.585-.195-.985-.195-.467,0-.84.077-1.12.23s-.495.36-.645.62-.25.557-.3.89-.075.68-.075,1.04c0,.333.015.672.045,1.015s.111.653.245.93c.133.277.34.502.62.675s.67.26,1.17.26c.66,0,1.143-.168,1.45-.505.306-.337.473-.818.5-1.445h-1.24c-.04.34-.114.593-.22.76-.107.167-.277.25-.51.25-.127,0-.234-.035-.32-.105-.087-.07-.157-.163-.21-.28-.054-.117-.092-.25-.115-.4-.024-.15-.035-.305-.035-.465v-.43h2.73ZM131.83,68.032h1.38v-5.38h-1.38v5.38ZM131.83,61.992h1.38v-1.18h-1.38v1.18ZM129.483,62.652v.6h-.02c-.134-.28-.304-.473-.51-.58-.207-.107-.407-.16-.6-.16-.374,0-.672.083-.895.25-.224.167-.394.382-.51.645-.117.263-.194.558-.23.885-.037.327-.055.647-.055.96,0,.98.138,1.678.415,2.095.276.417.688.625,1.235.625.22,0,.431-.06.635-.18.203-.12.375-.28.515-.48h.02v.71c0,.28-.057.512-.17.695-.114.183-.31.275-.59.275-.087,0-.169-.013-.245-.04-.077-.027-.149-.063-.215-.11-.14-.1-.21-.237-.21-.41h-1.32c0,.46.158.815.475,1.065.316.25.768.375,1.355.375.806,0,1.381-.172,1.725-.515.343-.343.515-.875.515-1.595v-5.11h-1.32ZM128.068,64.597c.016-.25.051-.45.105-.6.053-.15.126-.258.22-.325.093-.067.216-.1.37-.1.273,0,.461.137.565.41.103.273.155.737.155,1.39,0,.227-.012.435-.035.625-.024.19-.064.352-.12.485-.057.133-.134.238-.23.315-.097.077-.219.115-.365.115-.147,0-.265-.038-.355-.115s-.16-.18-.21-.31-.084-.278-.1-.445c-.017-.167-.025-.343-.025-.53,0-.36.008-.665.025-.915M123.329,68.032h1.38v-3.23c0-.18.03-.332.09-.455s.14-.223.24-.3.21-.132.33-.165.24-.05.36-.05c.073,0,.145.002.215.005s.141.008.215.015v-1.32c-.04-.007-.082-.012-.125-.015-.044-.003-.085-.005-.125-.005-.287,0-.53.078-.73.235s-.37.365-.51.625h-.02v-.72h-1.32v5.38ZM119.799,64.732v-.21c0-.127.011-.253.035-.38.023-.127.061-.242.115-.345.053-.103.125-.187.215-.25s.205-.095.345-.095.255.028.345.085.16.14.21.25.085.243.105.4.033.338.04.545h-1.41ZM122.529,65.552v-.31c0-.413-.027-.788-.08-1.125-.054-.337-.154-.623-.3-.86-.147-.237-.349-.42-.605-.55-.257-.13-.585-.195-.985-.195-.467,0-.84.077-1.12.23s-.495.36-.645.62-.25.557-.3.89-.075.68-.075,1.04c0,.333.015.672.045,1.015s.111.653.245.93c.133.277.34.502.62.675s.67.26,1.17.26c.66,0,1.143-.168,1.45-.505.306-.337.473-.818.5-1.445h-1.24c-.04.34-.114.593-.22.76-.107.167-.277.25-.51.25-.127,0-.234-.035-.32-.105-.087-.07-.157-.163-.21-.28-.054-.117-.092-.25-.115-.4-.024-.15-.035-.305-.035-.465v-.43h2.73ZM113.534,68.032h1.38v-3.57c0-.593.243-.89.73-.89.206,0,.356.055.45.165.093.11.14.305.14.585v3.71h1.38v-3.99c0-.54-.119-.93-.355-1.17-.237-.24-.575-.36-1.015-.36-.3,0-.567.062-.8.185-.234.123-.424.318-.57.585h-.02v-.63h-1.32v5.38ZM108.684,60.892v7.14h4.09v-1.18h-2.65v-1.92h2.4v-1.18h-2.4v-1.68h2.55v-1.18h-3.99Z" fill="#00549f"/>
      <path d="M171.473,50.583c.116-.1.261-.15.435-.15.186,0,.338.052.455.155.116.103.175.252.175.445,0,.127-.035.255-.105.385s-.185.262-.345.395l-.26.22-.17-.24c-.24-.32-.36-.58-.36-.78,0-.187.058-.33.175-.43M172.718,55.263c-.24.3-.55.45-.93.45-.16,0-.304-.028-.43-.085-.127-.057-.232-.13-.315-.22-.084-.09-.147-.19-.19-.3-.044-.11-.065-.222-.065-.335,0-.22.051-.423.155-.61.103-.187.295-.387.575-.6l1.2,1.7ZM172.478,52.893c.42-.3.731-.593.935-.88.203-.287.305-.61.305-.97,0-.207-.035-.4-.105-.58s-.179-.338-.325-.475c-.147-.137-.332-.243-.555-.32-.224-.077-.489-.115-.795-.115-.267,0-.512.035-.735.105-.224.07-.415.17-.575.3s-.285.288-.375.475-.135.393-.135.62c0,.1.006.197.02.29.013.093.036.19.07.29.033.1.081.207.145.32.063.113.145.243.245.39l.25.37c-.447.28-.799.588-1.055.925-.257.337-.385.715-.385,1.135,0,.2.03.42.09.66s.17.463.33.67.381.38.665.52c.283.14.651.21,1.105.21.36,0,.691-.062.995-.185.303-.123.545-.292.725-.505l.4.55h1.53l-.94-1.32c.213-.307.388-.638.525-.995.136-.357.205-.728.205-1.115h-1.24c0,.153-.024.333-.07.54-.047.207-.107.387-.18.54l-1.07-1.45ZM165.058,51.313v.6h-.02c-.134-.28-.304-.473-.51-.58-.207-.107-.407-.16-.6-.16-.374,0-.672.083-.895.25-.224.167-.394.382-.51.645-.117.263-.194.558-.23.885-.037.327-.055.647-.055.96,0,.98.138,1.678.415,2.095.276.417.688.625,1.235.625.22,0,.431-.06.635-.18.203-.12.375-.28.515-.48h.02v.71c0,.28-.057.512-.17.695-.114.183-.31.275-.59.275-.087,0-.169-.013-.245-.04-.077-.027-.149-.063-.215-.11-.14-.1-.21-.237-.21-.41h-1.32c0,.46.158.815.475,1.065.316.25.768.375,1.355.375.806,0,1.382-.172,1.725-.515s.515-.875.515-1.595v-5.11h-1.32ZM163.643,53.258c.016-.25.051-.45.105-.6.053-.15.126-.258.22-.325.093-.067.216-.1.37-.1.273,0,.461.137.565.41.103.273.155.737.155,1.39,0,.227-.012.435-.035.625-.024.19-.063.352-.12.485s-.133.238-.23.315-.219.115-.365.115c-.147,0-.265-.038-.355-.115s-.16-.18-.21-.31-.084-.278-.1-.445c-.017-.167-.025-.343-.025-.53,0-.36.008-.665.025-.915M157.307,56.693h1.38v-3.57c0-.593.243-.89.73-.89.207,0,.356.055.45.165.093.11.14.305.14.585v3.71h1.38v-3.99c0-.54-.119-.93-.355-1.17-.237-.24-.575-.36-1.015-.36-.3,0-.567.062-.8.185-.234.123-.423.318-.57.585h-.02v-.63h-1.32v5.38ZM155.009,56.693h1.32v-5.38h-1.38v3.57c0,.593-.244.89-.73.89-.207,0-.357-.055-.45-.165-.094-.11-.14-.305-.14-.585v-3.71h-1.38v3.99c0,.54.118.93.355,1.17.236.24.575.36,1.015.36.3,0,.566-.062.8-.185.233-.123.423-.318.57-.585h.02v.63ZM148.815,56.693h1.38v-3.23c0-.18.03-.332.09-.455s.14-.223.24-.3.21-.132.33-.165.24-.05.36-.05c.073,0,.145.002.215.005s.142.008.215.015v-1.32c-.04-.007-.082-.012-.125-.015s-.085-.005-.125-.005c-.287,0-.53.078-.73.235s-.37.365-.51.625h-.02v-.72h-1.32v5.38ZM145.285,53.393v-.21c0-.127.012-.253.035-.38s.062-.242.115-.345.125-.187.215-.25.205-.095.345-.095.255.028.345.085.16.14.21.25.085.243.105.4.033.338.04.545h-1.41ZM148.015,54.213v-.31c0-.413-.027-.788-.08-1.125s-.153-.623-.3-.86-.348-.42-.605-.55-.585-.195-.985-.195c-.467,0-.84.077-1.12.23s-.495.36-.645.62-.25.557-.3.89-.075.68-.075,1.04c0,.333.015.672.045,1.015s.112.653.245.93.34.502.62.675.67.26,1.17.26c.66,0,1.143-.168,1.45-.505s.473-.818.5-1.445h-1.24c-.04.34-.113.593-.22.76s-.277.25-.51.25c-.127,0-.233-.035-.32-.105s-.157-.163-.21-.28-.092-.25-.115-.4-.035-.305-.035-.465v-.43h2.73ZM141.678,56.693h1.38v-5.38h-1.38v5.38ZM141.678,50.653h1.38v-1.18h-1.38v1.18ZM136.912,54.933v.19c0,.26.03.495.09.705s.165.39.315.54.352.265.605.345c.254.08.577.12.97.12.287,0,.554-.035.8-.105.247-.07.459-.175.635-.315.177-.14.315-.317.415-.53s.15-.46.15-.74c0-.407-.09-.728-.27-.965s-.486-.428-.92-.575l-.83-.28c-.233-.073-.391-.163-.475-.27-.083-.107-.125-.227-.125-.36,0-.193.065-.338.195-.435s.282-.145.455-.145c.227,0,.385.065.475.195s.135.335.135.615h1.24v-.22c0-.487-.15-.863-.45-1.13s-.763-.4-1.39-.4c-.353,0-.655.043-.905.13s-.455.203-.615.35-.276.318-.35.515c-.073.197-.11.405-.11.625,0,.38.097.692.29.935.194.243.48.432.86.565l.97.35c.134.053.25.125.35.215s.15.222.15.395c0,.213-.063.373-.19.48-.126.107-.296.16-.51.16-.233,0-.411-.072-.535-.215-.123-.143-.185-.332-.185-.565v-.18h-1.24ZM134.721,56.693h1.38v-5.38h-1.38v5.38ZM134.721,50.653h1.38v-1.18h-1.38v1.18ZM132.314,56.693h1.38v-7.14h-1.38v7.14ZM129.957,55.063c0,.153-.027.282-.08.385-.054.103-.122.188-.205.255-.084.067-.175.115-.275.145s-.197.045-.29.045c-.187,0-.32-.073-.4-.22s-.12-.323-.12-.53c0-.24.06-.43.18-.57s.32-.24.6-.3c.086-.02.183-.052.29-.095.106-.043.206-.102.3-.175v1.06ZM128.677,52.963v-.15c0-.213.053-.383.16-.51.106-.127.266-.19.48-.19.233,0,.398.058.495.175.096.117.145.278.145.485,0,.18-.04.317-.12.41s-.224.167-.43.22l-.78.21c-.24.067-.445.143-.615.23s-.31.195-.42.325-.192.287-.245.47c-.054.183-.08.402-.08.655,0,.18.023.362.07.545.046.183.12.348.22.495s.233.267.4.36c.166.093.37.14.61.14.333,0,.605-.047.815-.14s.395-.28.555-.56h.02c.02.093.041.188.065.285.023.097.058.188.105.275h1.32c-.067-.16-.112-.31-.135-.45-.024-.14-.035-.337-.035-.59v-2.83c0-.24-.025-.462-.075-.665s-.145-.378-.285-.525-.339-.26-.595-.34c-.257-.08-.589-.12-.995-.12-.26,0-.505.028-.735.085s-.43.15-.6.28-.305.302-.405.515-.15.473-.15.78v.13h1.24ZM124.601,51.313h-.7v.94h.7v3.08c0,.273.016.5.05.68.033.18.095.325.185.435s.218.188.385.235c.166.047.386.07.66.07.16,0,.311-.007.455-.02.143-.013.291-.027.445-.04v-.96c-.047.007-.097.012-.15.015-.054.003-.107.005-.16.005-.2,0-.332-.045-.395-.135-.064-.09-.095-.242-.095-.455v-2.91h.8v-.94h-.8v-1.54h-1.38v1.54ZM121.88,56.693h1.38v-5.38h-1.38v5.38ZM121.88,50.653h1.38v-1.18h-1.38v1.18ZM119.533,51.313v.6h-.02c-.134-.28-.304-.473-.51-.58-.207-.107-.407-.16-.6-.16-.374,0-.672.083-.895.25-.224.167-.394.382-.51.645-.117.263-.194.558-.23.885-.037.327-.055.647-.055.96,0,.98.138,1.678.415,2.095.276.417.688.625,1.235.625.22,0,.431-.06.635-.18.203-.12.375-.28.515-.48h.02v.71c0,.28-.057.512-.17.695-.114.183-.31.275-.59.275-.087,0-.169-.013-.245-.04-.077-.027-.149-.063-.215-.11-.14-.1-.21-.237-.21-.41h-1.32c0,.46.158.815.475,1.065.316.25.768.375,1.355.375.806,0,1.381-.172,1.725-.515.343-.343.515-.875.515-1.595v-5.11h-1.32ZM118.118,53.258c.016-.25.051-.45.105-.6.053-.15.126-.258.22-.325.093-.067.216-.1.37-.1.273,0,.461.137.565.41.103.273.155.737.155,1.39,0,.227-.012.435-.035.625-.024.19-.064.352-.12.485-.057.133-.134.238-.23.315-.097.077-.219.115-.365.115-.147,0-.265-.038-.355-.115s-.16-.18-.21-.31-.084-.278-.1-.445c-.017-.167-.025-.343-.025-.53,0-.36.008-.665.025-.915M114.439,56.693h1.38v-5.38h-1.38v5.38ZM114.439,50.653h1.38v-1.18h-1.38v1.18ZM108.754,56.693h2.27c.48,0,.877-.073,1.19-.22s.563-.37.75-.67.318-.68.395-1.14.115-1.007.115-1.64c0-.527-.03-1.003-.09-1.43s-.175-.792-.345-1.095-.408-.537-.715-.7-.71-.245-1.21-.245h-2.36v7.14ZM110.194,50.613h.61c.273,0,.492.052.655.155s.287.258.37.465.138.462.165.765.04.658.04,1.065c0,.487-.015.893-.045,1.22s-.09.59-.18.79-.213.343-.37.43-.358.13-.605.13h-.64v-5.02Z" fill="#00549f"/>
      <path d="M174.909,43.794v1.56h.52v.16c0,.187-.043.357-.13.51s-.217.247-.39.28v.7c.267-.027.485-.092.655-.195s.305-.237.405-.4.168-.357.205-.58.055-.468.055-.735v-1.3h-1.32ZM171.385,42.054v-.21c0-.127.012-.253.035-.38s.062-.242.115-.345.125-.187.215-.25.205-.095.345-.095.255.028.345.085.16.14.21.25.085.243.105.4.033.338.04.545h-1.41ZM174.115,42.874v-.31c0-.413-.027-.788-.08-1.125s-.153-.623-.3-.86-.348-.42-.605-.55-.585-.195-.985-.195c-.467,0-.84.077-1.12.23s-.495.36-.645.62-.25.557-.3.89-.075.68-.075,1.04c0,.333.015.672.045,1.015s.112.653.245.93.34.502.62.675.67.26,1.17.26c.66,0,1.143-.168,1.45-.505s.473-.818.5-1.445h-1.24c-.04.34-.113.593-.22.76s-.277.25-.51.25c-.127,0-.233-.035-.32-.105s-.157-.163-.21-.28-.092-.25-.115-.4-.035-.305-.035-.465v-.43h2.73ZM165.678,45.354h3.78v-1.12h-2.15l2.15-3.2v-1.06h-3.68v1.12h2.05l-2.15,3.2v1.06ZM163.022,39.974h-.7v.94h.7v3.08c0,.273.017.5.05.68.034.18.095.325.185.435s.219.188.385.235c.167.047.387.07.66.07.16,0,.312-.007.455-.02.144-.013.292-.027.445-.04v-.96c-.046.007-.096.012-.15.015-.053.003-.106.005-.16.005-.2,0-.331-.045-.395-.135-.063-.09-.095-.242-.095-.455v-2.91h.8v-.94h-.8v-1.54h-1.38v1.54ZM159.162,42.054v-.21c0-.127.012-.253.035-.38.024-.127.062-.242.115-.345.054-.103.125-.187.215-.25s.205-.095.345-.095.255.028.345.085.16.14.21.25.085.243.105.4.034.338.04.545h-1.41ZM161.892,42.874v-.31c0-.413-.026-.788-.08-1.125-.053-.337-.153-.623-.3-.86-.146-.237-.348-.42-.605-.55-.256-.13-.585-.195-.985-.195-.466,0-.84.077-1.12.23s-.495.36-.645.62-.25.557-.3.89-.075.68-.075,1.04c0,.333.015.672.045,1.015s.112.653.245.93c.134.277.34.502.62.675s.67.26,1.17.26c.66,0,1.144-.168,1.45-.505.307-.337.474-.818.5-1.445h-1.24c-.04.34-.113.593-.22.76-.106.167-.276.25-.51.25-.126,0-.233-.035-.32-.105-.086-.07-.156-.163-.21-.28-.053-.117-.091-.25-.115-.4-.023-.15-.035-.305-.035-.465v-.43h2.73ZM152.175,38.214v7.14h1.32v-5h.02l1.76,5h1.64v-7.14h-1.32v4.89h-.02l-1.74-4.89h-1.66ZM145.531,39.244c.116-.1.261-.15.435-.15.186,0,.338.052.455.155.116.103.175.252.175.445,0,.127-.035.255-.105.385s-.185.262-.345.395l-.26.22-.17-.24c-.24-.32-.36-.58-.36-.78,0-.187.058-.33.175-.43M146.776,43.924c-.24.3-.55.45-.93.45-.16,0-.304-.028-.43-.085-.127-.057-.232-.13-.315-.22-.084-.09-.147-.19-.19-.3-.044-.11-.065-.222-.065-.335,0-.22.051-.423.155-.61.103-.187.295-.387.575-.6l1.2,1.7ZM146.536,41.554c.42-.3.731-.593.935-.88.203-.287.305-.61.305-.97,0-.207-.035-.4-.105-.58s-.179-.338-.325-.475c-.147-.137-.332-.243-.555-.32-.224-.077-.489-.115-.795-.115-.267,0-.512.035-.735.105-.224.07-.415.17-.575.3s-.285.288-.375.475-.135.393-.135.62c0,.1.006.197.02.29.013.093.036.19.07.29.033.1.081.207.145.32.063.113.145.243.245.39l.25.37c-.447.28-.799.588-1.055.925-.257.337-.385.715-.385,1.135,0,.2.03.42.09.66s.17.463.33.67.381.38.665.52c.283.14.651.21,1.105.21.36,0,.691-.062.995-.185.303-.123.545-.292.725-.505l.4.55h1.53l-.94-1.32c.213-.307.388-.638.525-.995.136-.357.205-.728.205-1.115h-1.24c0,.153-.024.333-.07.54-.047.207-.107.387-.18.54l-1.07-1.45ZM136.406,45.354h1.38v-3.57c0-.593.243-.89.73-.89.206,0,.356.055.45.165.093.11.14.305.14.585v3.71h1.38v-3.99c0-.54-.119-.93-.355-1.17-.237-.24-.575-.36-1.015-.36-.3,0-.567.062-.8.185-.234.123-.424.318-.57.585h-.02v-.63h-1.32v5.38ZM132.876,42.054v-.21c0-.127.011-.253.035-.38.023-.127.061-.242.115-.345.053-.103.125-.187.215-.25s.205-.095.345-.095.255.028.345.085.16.14.21.25.085.243.105.4.033.338.04.545h-1.41ZM135.606,42.874v-.31c0-.413-.027-.788-.08-1.125-.054-.337-.154-.623-.3-.86-.147-.237-.349-.42-.605-.55-.257-.13-.585-.195-.985-.195-.467,0-.84.077-1.12.23s-.495.36-.645.62-.25.557-.3.89-.075.68-.075,1.04c0,.333.015.672.045,1.015s.111.653.245.93c.133.277.34.502.62.675s.67.26,1.17.26c.66,0,1.143-.168,1.45-.505.306-.337.473-.818.5-1.445h-1.24c-.04.34-.114.593-.22.76-.107.167-.277.25-.51.25-.127,0-.234-.035-.32-.105-.087-.07-.157-.163-.21-.28-.054-.117-.092-.25-.115-.4-.024-.15-.035-.305-.035-.465v-.43h2.73ZM129.335,39.974v.6h-.02c-.134-.28-.304-.473-.51-.58-.207-.107-.407-.16-.6-.16-.374,0-.672.083-.895.25-.224.167-.394.382-.51.645-.117.263-.194.558-.23.885-.037.327-.055.647-.055.96,0,.98.138,1.678.415,2.095.276.417.688.625,1.235.625.22,0,.431-.06.635-.18.203-.12.375-.28.515-.48h.02v.71c0,.28-.057.512-.17.695-.114.183-.31.275-.59.275-.087,0-.169-.013-.245-.04-.077-.027-.149-.063-.215-.11-.14-.1-.21-.237-.21-.41h-1.32c0,.46.158.815.475,1.065.316.25.768.375,1.355.375.806,0,1.381-.172,1.725-.515.343-.343.515-.875.515-1.595v-5.11h-1.32ZM127.92,41.919c.016-.25.051-.45.105-.6.053-.15.126-.258.22-.325.093-.067.216-.1.37-.1.273,0,.461.137.565.41.103.273.155.737.155,1.39,0,.227-.012.435-.035.625-.024.19-.064.352-.12.485-.057.133-.134.238-.23.315-.097.077-.219.115-.365.115-.147,0-.265-.038-.355-.115s-.16-.18-.21-.31-.084-.278-.1-.445c-.017-.167-.025-.343-.025-.53,0-.36.008-.665.025-.915M124.34,43.724c0,.153-.027.282-.08.385-.054.103-.122.188-.205.255-.084.067-.175.115-.275.145s-.197.045-.29.045c-.187,0-.32-.073-.4-.22s-.12-.323-.12-.53c0-.24.06-.43.18-.57s.32-.24.6-.3c.086-.02.183-.052.29-.095.106-.043.206-.102.3-.175v1.06ZM123.06,41.624v-.15c0-.213.053-.383.16-.51.106-.127.266-.19.48-.19.233,0,.398.058.495.175.096.117.145.278.145.485,0,.18-.04.317-.12.41s-.224.167-.43.22l-.78.21c-.24.067-.445.143-.615.23s-.31.195-.42.325-.192.287-.245.47c-.054.183-.08.402-.08.655,0,.18.023.362.07.545.046.183.12.348.22.495s.233.267.4.36c.166.093.37.14.61.14.333,0,.605-.047.815-.14s.395-.28.555-.56h.02c.02.093.041.188.065.285.023.097.058.188.105.275h1.32c-.067-.16-.112-.31-.135-.45-.024-.14-.035-.337-.035-.59v-2.83c0-.24-.025-.462-.075-.665s-.145-.378-.285-.525-.339-.26-.595-.34c-.257-.08-.589-.12-.995-.12-.26,0-.505.028-.735.085s-.43.15-.6.28-.305.302-.405.515-.15.473-.15.78v.13h1.24ZM119.446,45.354h1.38v-7.14h-1.38v7.14ZM114.367,45.354h1.38v-3.57c0-.593.243-.89.73-.89.207,0,.357.055.45.165s.14.305.14.585v3.71h1.38v-3.99c0-.54-.118-.93-.355-1.17s-.575-.36-1.015-.36c-.3,0-.567.062-.8.185s-.423.318-.57.585h-.02v-.63h-1.32v5.38ZM108.184,45.354h1.5l.33-1.51h1.9l.33,1.51h1.5l-1.89-7.14h-1.78l-1.89,7.14ZM110.954,39.454h.02l.69,3.21h-1.4l.69-3.21Z" fill="#00549f"/>
      <path d="M150.372,30.716v-.21c0-.127.012-.253.035-.38.024-.127.062-.242.115-.345.054-.103.125-.187.215-.25s.205-.095.345-.095.255.028.345.085.16.14.21.25.085.243.105.4.034.338.04.545h-1.41ZM153.102,31.536v-.31c0-.413-.026-.788-.08-1.125-.053-.337-.153-.623-.3-.86-.146-.237-.348-.42-.605-.55-.256-.13-.585-.195-.985-.195-.466,0-.84.077-1.12.23s-.495.36-.645.62-.25.557-.3.89-.075.68-.075,1.04c0,.333.015.672.045,1.015s.112.653.245.93c.134.277.34.502.62.675s.67.26,1.17.26c.66,0,1.144-.168,1.45-.505.307-.337.474-.818.5-1.445h-1.24c-.04.34-.113.593-.22.76-.106.167-.276.25-.51.25-.126,0-.233-.035-.32-.105-.086-.07-.156-.163-.21-.28-.053-.117-.091-.25-.115-.4-.023-.15-.035-.305-.035-.465v-.43h2.73ZM144.107,34.016h1.38v-3.57c0-.593.244-.89.73-.89.207,0,.357.055.45.165.094.11.14.305.14.585v3.71h1.38v-3.99c0-.54-.118-.93-.355-1.17-.236-.24-.575-.36-1.015-.36-.606,0-1.043.23-1.31.69h-.02v-2.31h-1.38v7.14ZM143.319,30.576c0-.64-.161-1.147-.485-1.52-.323-.373-.805-.56-1.445-.56-.32,0-.613.043-.88.13-.266.087-.496.238-.69.455-.193.217-.343.507-.45.87-.106.363-.16.822-.16,1.375,0,.54.044.992.13,1.355.087.363.215.653.385.87s.384.372.64.465c.257.093.559.14.905.14.734,0,1.259-.19,1.575-.57.317-.38.475-.923.475-1.63h-1.32c0,.44-.053.76-.16.96-.106.2-.276.3-.51.3-.153,0-.278-.035-.375-.105-.096-.07-.171-.182-.225-.335-.053-.153-.09-.348-.11-.585s-.03-.522-.03-.855c0-.307.01-.577.03-.81s.057-.425.11-.575c.054-.15.132-.263.235-.34.104-.077.242-.115.415-.115.127,0,.232.032.315.095.084.063.147.147.19.25.044.103.074.22.09.35.017.13.025.258.025.385h1.32ZM134.649,32.256v.19c0,.26.03.495.09.705s.165.39.315.54.352.265.605.345c.254.08.577.12.97.12.287,0,.554-.035.8-.105.247-.07.459-.175.635-.315.177-.14.315-.317.415-.53s.15-.46.15-.74c0-.407-.09-.728-.27-.965s-.486-.428-.92-.575l-.83-.28c-.233-.073-.391-.163-.475-.27-.083-.107-.125-.227-.125-.36,0-.193.065-.338.195-.435s.282-.145.455-.145c.227,0,.385.065.475.195s.135.335.135.615h1.24v-.22c0-.487-.15-.863-.45-1.13s-.763-.4-1.39-.4c-.353,0-.655.043-.905.13s-.455.203-.615.35-.276.318-.35.515c-.073.197-.11.405-.11.625,0,.38.097.692.29.935.194.243.48.432.86.565l.97.35c.134.053.25.125.35.215s.15.222.15.395c0,.213-.063.373-.19.48-.126.107-.296.16-.51.16-.233,0-.411-.072-.535-.215-.123-.143-.185-.332-.185-.565v-.18h-1.24ZM132.459,34.016h1.38v-5.38h-1.38v5.38ZM132.459,27.976h1.38v-1.18h-1.38v1.18ZM128.999,34.016h1.38v-3.23c0-.18.03-.332.09-.455s.14-.223.24-.3.21-.132.33-.165.24-.05.36-.05c.073,0,.145.002.215.005s.141.008.215.015v-1.32c-.04-.007-.082-.012-.125-.015-.044-.003-.085-.005-.125-.005-.287,0-.53.078-.73.235s-.37.365-.51.625h-.02v-.72h-1.32v5.38ZM126.213,28.636h-.7v.94h.7v3.08c0,.273.016.5.05.68.033.18.095.325.185.435s.218.188.385.235c.166.047.386.07.66.07.16,0,.311-.007.455-.02.143-.013.291-.027.445-.04v-.96c-.047.007-.097.012-.15.015-.054.003-.107.005-.16.005-.2,0-.332-.045-.395-.135-.064-.09-.095-.242-.095-.455v-2.91h.8v-.94h-.8v-1.54h-1.38v1.54ZM120.733,26.876v7.14h1.38v-1.57l.49-.64,1.15,2.21h1.52l-1.78-3.26,1.55-2.12h-1.52l-1.39,2.01h-.02v-3.77h-1.38ZM117.177,30.716v-.21c0-.127.011-.253.035-.38.023-.127.061-.242.115-.345.053-.103.125-.187.215-.25s.205-.095.345-.095.255.028.345.085.16.14.21.25.085.243.105.4.033.338.04.545h-1.41ZM119.907,31.536v-.31c0-.413-.027-.788-.08-1.125-.054-.337-.154-.623-.3-.86-.147-.237-.349-.42-.605-.55-.257-.13-.585-.195-.985-.195-.467,0-.84.077-1.12.23s-.495.36-.645.62-.25.557-.3.89-.075.68-.075,1.04c0,.333.015.672.045,1.015s.111.653.245.93c.133.277.34.502.62.675s.67.26,1.17.26c.66,0,1.143-.168,1.45-.505.306-.337.473-.818.5-1.445h-1.24c-.04.34-.114.593-.22.76-.107.167-.277.25-.51.25-.127,0-.234-.035-.32-.105-.087-.07-.157-.163-.21-.28-.054-.117-.092-.25-.115-.4-.024-.15-.035-.305-.035-.465v-.43h2.73ZM113.57,34.016h1.38v-7.14h-1.38v7.14ZM108.684,26.876v7.14h4.09v-1.18h-2.65v-1.92h2.4v-1.18h-2.4v-1.68h2.55v-1.18h-3.99Z" fill="#00549f"/>
    </g>
  </g>
</svg>