<svg width="600" height="233" viewBox="0 0 600 233" fill="none" xmlns="http://www.w3.org/2000/svg">
<path d="M393.465 112.767H403.525C407.155 112.767 409.601 112.293 410.863 111.346C412.205 110.399 412.876 108.348 412.876 105.191V46.1309H441.281V95.96C441.281 103.535 440.769 109.926 439.743 115.134C438.796 120.341 436.902 124.602 434.062 127.916C431.3 131.151 427.434 133.479 422.463 134.899C417.492 136.32 411.061 137.03 403.17 137.03C395.28 137.03 388.849 136.32 383.878 134.899C378.907 133.479 375.001 131.151 372.16 127.916C369.399 124.681 367.504 120.46 366.479 115.252C365.532 109.965 365.059 103.535 365.059 95.96V46.1309H393.465V112.767ZM560.976 44C573.522 44 584.885 45.1836 595.063 47.5508L591.513 70.2754C582.675 68.8551 575.613 68.1455 570.326 68.1455C565.039 68.1455 560.542 68.382 556.833 68.8555V75.8389L567.012 76.7852C573.245 77.4164 578.454 78.4822 582.636 79.9814C586.818 81.4017 590.171 83.295 592.696 85.6621C595.3 88.0292 597.115 90.8304 598.141 94.0654C599.245 97.3006 599.798 101.009 599.798 105.191C599.798 111.188 599.009 116.239 597.431 120.342C595.853 124.445 593.958 127.561 591.749 129.691C589.934 131.427 587.686 132.808 585.003 133.834C582.32 134.781 579.479 135.491 576.48 135.965C573.482 136.438 570.444 136.714 567.367 136.793C564.369 136.951 561.646 137.03 559.2 137.03C553.046 137.03 547.127 136.714 541.446 136.083C535.765 135.452 530.281 134.545 524.994 133.361L529.019 109.926C537.698 112.056 545.55 113.121 552.572 113.121C556.123 113.121 559.24 113.082 561.923 113.003C564.684 112.845 567.13 112.609 569.261 112.293V105.191L556.479 104.126C550.718 103.574 545.904 102.628 542.038 101.286C538.172 99.9447 535.055 98.1291 532.688 95.8408C530.399 93.4737 528.743 90.6725 527.717 87.4375C526.77 84.1236 526.297 80.2574 526.297 75.8389C526.297 69.7631 526.928 64.7127 528.19 60.6885C529.453 56.5855 531.465 53.3113 534.227 50.8652C536.988 48.3403 540.539 46.5648 544.879 45.5391C549.298 44.5133 554.663 44 560.976 44ZM221.834 134.899H191.89L188.575 120.814H165.141L161.944 134.899H139.663C137.755 132.172 135.916 129.395 134.153 126.571L154.962 46.1309H198.873L221.834 134.899ZM286.274 68.8555H255.737V80.8096H284.144V101.404H255.737V112.175H290.535V134.899H227.331V46.1309H289.825L286.274 68.8555ZM330.983 112.175H359.39V134.899H302.577V46.1309H330.983V112.175ZM512.242 68.8555H481.706V80.8096H510.112V101.404H481.706V112.175H516.503V134.899H453.3V46.1309H515.793L512.242 68.8555ZM170.349 98.208H183.368L177.687 73.3525H176.147L170.349 98.208Z" fill="white"/>
<path d="M102.819 46.2319C104.9 63.9193 109.407 81.2732 116.25 97.7935C117.877 101.722 119.634 105.589 121.511 109.392C114.078 119.934 105.779 129.822 96.7178 138.952C91.5983 130.135 87.0592 120.969 83.1406 111.508C74.4939 90.6332 68.9892 68.6353 66.7695 46.2319H102.819Z" fill="#FF1356"/>
<path d="M163.275 0C160.941 21.7643 155.504 43.1263 147.096 63.4268C140.784 78.6652 132.864 93.1419 123.496 106.622C121.911 103.342 120.418 100.015 119.021 96.6445C114.375 85.4277 110.823 73.82 108.394 61.9834C110.396 57.9648 112.263 53.8729 113.986 49.7129C120.591 33.7687 125.02 17.0476 127.191 0H163.275Z" fill="#2B73CC"/>
<path d="M77.8418 106.521C82.4165 118.522 87.9565 130.046 94.3652 141.001C75.8558 159.045 54.4474 173.826 31.0488 184.732L0 158.819C2.75052 157.823 5.48247 156.767 8.19043 155.646C31.7195 145.899 53.099 131.614 71.1074 113.605C73.4143 111.299 75.6589 108.935 77.8418 106.521Z" fill="#D1D5DB"/>
<path d="M123.079 113.03C132.334 131.314 144.441 148.045 158.976 162.579C176.984 180.587 198.364 194.873 221.893 204.619C223.523 205.294 225.163 205.944 226.809 206.574L196.018 232.271C172.918 221.093 151.825 206.11 133.635 187.92C119.881 174.166 107.961 158.752 98.1318 142.066C107.214 133.097 115.563 123.385 123.079 113.03Z" fill="#D1D5DB"/>
</svg>
