<svg width="850" height="170" viewBox="0 0 850 170" fill="none" xmlns="http://www.w3.org/2000/svg">
<path d="M619.188 36.6367C631.219 36.6367 640.302 40.8476 646.438 49.2695C652.575 57.6916 655.643 69.9637 655.644 86.0859C655.644 102.208 652.575 114.541 646.438 123.083C640.302 131.505 631.219 135.717 619.188 135.717C616.059 135.717 613.111 135.235 610.344 134.272C607.577 133.43 605.05 132.227 602.765 130.663C600.599 128.979 598.734 127.053 597.17 124.888C595.606 122.602 594.462 120.196 593.74 117.669H592.838V169.646H566.128V38.8018H592.838V54.6836H593.74C595.064 49.3897 598.072 45.0583 602.765 41.6895C607.577 38.3208 613.052 36.6367 619.188 36.6367ZM346.724 36.6367C354.544 36.6367 361.221 37.9596 366.756 40.6064C372.411 43.2534 376.983 46.8032 380.472 51.2549C384.081 55.7066 386.668 60.8799 388.232 66.7754C389.917 72.5504 390.759 78.6263 390.759 85.0029V92.9443H329.939V94.3877C329.939 100.644 331.624 105.637 334.992 109.367C338.361 112.977 343.655 114.781 350.874 114.781C356.409 114.781 360.921 113.699 364.41 111.533C367.899 109.247 371.147 106.54 374.155 103.412L387.511 120.016C383.3 124.948 377.765 128.798 370.907 131.565C364.17 134.333 356.469 135.717 347.807 135.717C340.588 135.717 334.15 134.574 328.495 132.288C322.84 129.882 318.028 126.572 314.058 122.361C310.208 118.03 307.26 112.796 305.215 106.66C303.29 100.524 302.327 93.6659 302.327 86.0859C302.327 78.6264 303.29 71.8888 305.215 65.873C307.14 59.7371 309.967 54.5032 313.696 50.1719C317.546 45.8406 322.239 42.5321 327.773 40.2461C333.308 37.8398 339.625 36.6367 346.724 36.6367ZM502.7 36.6367C509.678 36.6368 515.874 37.7796 521.288 40.0654C526.823 42.3514 531.456 45.6598 535.186 49.9912C539.036 54.2022 541.983 59.3758 544.028 65.5117C546.074 71.6478 547.097 78.5061 547.097 86.0859C547.097 93.6658 546.074 100.524 544.028 106.66C541.983 112.796 539.036 118.03 535.186 122.361C531.456 126.693 526.823 130.002 521.288 132.288C515.874 134.574 509.678 135.717 502.7 135.717C495.722 135.717 489.465 134.574 483.931 132.288C478.516 130.002 473.884 126.693 470.034 122.361C466.304 118.03 463.416 112.796 461.371 106.66C459.326 100.524 458.303 93.6658 458.303 86.0859C458.303 78.5061 459.326 71.6478 461.371 65.5117C463.416 59.3758 466.304 54.2022 470.034 49.9912C473.884 45.6599 478.517 42.3514 483.931 40.0654C489.465 37.7795 495.722 36.6367 502.7 36.6367ZM714.369 36.6367C722.189 36.6367 728.867 37.9597 734.401 40.6064C740.056 43.2534 744.629 46.8032 748.118 51.2549C751.727 55.7065 754.314 60.8801 755.878 66.7754C757.562 72.5504 758.405 78.6263 758.405 85.0029V92.9443H697.585V94.3877C697.585 100.644 699.27 105.637 702.639 109.367C706.008 112.977 711.302 114.781 718.521 114.781C724.055 114.781 728.567 113.699 732.056 111.533C735.545 109.247 738.794 106.54 741.802 103.412L755.156 120.016C750.945 124.948 745.411 128.798 738.553 131.565C731.815 134.333 724.115 135.717 715.452 135.717C708.233 135.717 701.796 134.574 696.142 132.288C690.487 129.882 685.674 126.572 681.703 122.361C677.853 118.03 674.906 112.796 672.86 106.66C670.935 100.524 669.973 93.6658 669.973 86.0859C669.973 78.6264 670.935 71.8888 672.86 65.873C674.785 59.737 677.613 54.5032 681.343 50.1719C685.193 45.8407 689.885 42.5321 695.419 40.2461C700.953 37.8398 707.271 36.6367 714.369 36.6367ZM809.394 36.6367C814.326 36.6367 818.658 36.9969 822.388 37.7188C826.238 38.3203 829.607 39.283 832.494 40.6064C835.502 41.8096 838.209 43.3738 840.615 45.2988C843.142 47.1036 845.608 49.1495 848.015 51.4355L832.674 67.1367C829.666 64.1289 826.238 61.7821 822.388 60.0977C818.658 58.2929 814.807 57.3906 810.837 57.3906C806.265 57.3906 803.017 58.113 801.092 59.5566C799.167 61.0004 798.204 62.9257 798.204 65.332C798.204 67.8583 798.865 69.8434 800.188 71.2871C801.632 72.6106 804.28 73.5732 808.13 74.1748L818.777 75.6191C839.592 78.3864 850 87.8911 850 104.134C850 108.706 849.037 112.917 847.112 116.767C845.187 120.617 842.42 123.986 838.811 126.873C835.321 129.64 831.05 131.806 825.997 133.37C821.064 134.934 815.53 135.717 809.394 135.717C800.25 135.717 792.548 134.272 786.292 131.385C780.036 128.377 774.442 124.166 769.509 118.752L785.21 102.87C788.579 106.6 792.309 109.548 796.399 111.714C800.49 113.879 805.122 114.962 810.296 114.962C815.59 114.962 819.259 114.18 821.305 112.616C823.35 110.932 824.372 108.706 824.372 105.938C824.372 101.487 821.184 98.8393 814.808 97.9971L804.521 96.7344C783.225 94.0874 772.576 84.3413 772.576 67.4971C772.576 62.9252 773.419 58.7746 775.104 55.0449C776.908 51.1948 779.375 47.9458 782.503 45.2988C785.751 42.5317 789.601 40.4262 794.053 38.9824C798.625 37.4183 803.739 36.6367 809.394 36.6367ZM116.406 133.551H78.6152C77.2796 124.59 74.1045 113.489 74.1045 113.489C72.6424 108.298 72.4486 106.223 70.5957 101.443C68.7428 96.6639 68.5536 94.6122 67.2246 95.7646C65.8953 96.9177 70.9566 117.372 67.0498 117.598C65.9759 107.612 62.3896 93.7093 62.0918 93.5322C61.7947 93.3585 57.6681 94.7365 54.9697 92.0879C52.2714 89.4392 56.7659 79.9176 68.498 77.1309C61.7838 80.8362 59.5543 83.6152 58.4883 89.9326C71.4826 87.1611 77.5467 84.0041 82.5635 70.7725C68.4418 69.7052 62.0646 71.4732 53.1758 78.4531C50.4454 76.9391 49.7882 75.4193 51.0762 70.8125C56.2022 62.858 59.9468 59.5155 66.6758 53.6182C60.6182 61.0616 54.0699 69.7311 53.2246 71.8623C52.3847 73.9802 54.1847 76.0737 54.207 76.0996C59.8809 65.1091 68.236 60.3363 73.2168 48.3203C78.1975 36.3045 64.4143 27.2176 64.3213 28.7109C64.2288 30.2047 72.0754 42.2443 66.2002 48.1025C60.3249 53.9609 34.2233 85.193 34.3486 86.8691C34.474 88.5452 35.0405 89.3766 35.4121 89.6592L22.6338 110.932L26.4521 112.249L22.8457 113.384C24.1307 115.71 26.7874 116.131 29.6299 115.68C32.4725 115.229 36.7383 112.185 36.7383 112.185L39.0381 112.604C36.4095 114.896 33.4133 116.588 29.958 117.092C26.5025 117.596 26.4312 116.345 25.8008 116.627C25.1704 116.909 29.2955 120.59 33.8818 119.635C38.4683 118.679 51.6172 110.489 51.7334 109.45C51.8494 108.412 52.1796 105.101 52.1807 105.09L51.1689 102.913L51.3203 102.282C52.5874 103.03 53.1976 103.627 54.0361 105.136L54.5938 109.204C54.608 109.193 55.7561 108.274 56.8867 107.153C58.0242 106.027 58.7426 107.2 58.0488 108.7C57.3545 110.201 51.0186 115.481 51.0186 115.481C48.9083 125.002 47.4566 129.722 45.3203 133.551H44.1924L46.9395 118.303L41.0576 121.691L38.6387 133.551H0L41.5088 7.58008H75.4385L116.406 133.551ZM186.533 36.6367C196.279 36.6368 203.618 39.8848 208.551 46.3818C213.604 52.8789 216.131 62.1432 216.131 74.1748V133.551H189.42V76.3408C189.42 70.2047 188.458 65.6923 186.533 62.8047C184.608 59.7969 181.179 58.293 176.246 58.293C174.08 58.293 171.974 58.5937 169.929 59.1953C167.884 59.6766 166.019 60.5196 164.335 61.7227C162.771 62.9258 161.507 64.4296 160.545 66.2344C159.582 67.9187 159.101 69.9036 159.101 72.1895V133.551H132.391V38.8018H159.101V54.8643H160.184C161.868 49.9314 164.816 45.6602 169.026 42.0508C173.237 38.4413 179.074 36.6367 186.533 36.6367ZM271.663 38.8018H290.433V59.5566H271.663V112.797H288.988V133.551H273.106C263.842 133.551 256.804 131.205 251.991 126.513C247.299 121.82 244.953 114.962 244.953 105.938V59.5566H231.598V38.8018H238.275C241.885 38.8017 244.351 37.9598 245.675 36.2754C246.998 34.4706 247.66 31.9438 247.66 28.6953V13.1748H271.663V38.8018ZM436.333 112.797H448.244V133.551H436.152C427.008 133.551 420.271 131.325 415.939 126.873C411.729 122.421 409.623 115.984 409.623 107.562V0H436.333V112.797ZM502.7 57.752C497.406 57.752 493.315 59.3765 490.428 62.625C487.54 65.8735 486.096 70.5057 486.096 76.5215V95.832C486.096 101.848 487.54 106.48 490.428 109.729C493.315 112.977 497.406 114.602 502.7 114.602C507.994 114.601 512.084 112.977 514.972 109.729C517.859 106.48 519.304 101.848 519.304 95.832V76.5215C519.304 70.5057 517.859 65.8735 514.972 62.625C512.084 59.3766 507.994 57.7521 502.7 57.752ZM610.344 58.293C605.291 58.293 601.08 59.5565 597.711 62.083C594.462 64.4893 592.838 67.8582 592.838 72.1895V100.163C592.838 104.494 594.462 107.924 597.711 110.45C601.08 112.856 605.291 114.06 610.344 114.06C615.397 114.06 619.548 112.315 622.797 108.826C626.166 105.217 627.851 100.404 627.851 94.3877V77.9648C627.851 71.9491 626.166 67.1962 622.797 63.707C619.548 60.0977 615.397 58.293 610.344 58.293ZM347.265 56.3076C341.851 56.3077 337.579 58.1132 334.451 61.7227C331.443 65.2117 329.94 69.9037 329.939 75.7988V77.2432H363.146V75.6191C363.146 69.844 361.823 65.2118 359.176 61.7227C356.649 58.1132 352.679 56.3076 347.265 56.3076ZM714.911 56.3076C709.497 56.3076 705.225 58.1132 702.097 61.7227C699.089 65.2117 697.585 69.9037 697.585 75.7988V77.2432H730.792V75.6191C730.792 69.8442 729.469 65.2118 726.822 61.7227C724.296 58.1133 720.325 56.3077 714.911 56.3076ZM49.2852 28.5684C56.5729 36.3572 57.9263 42.8474 54.2705 50.5723C50.6146 58.2973 44.9053 68.4639 44.9053 68.4639C52.2972 61.0682 55.4834 56.5424 58.3145 47.3418C59.3858 49.4199 58.8143 51.5378 56.2295 56.5781C62.1733 49.4781 64.4539 44.5481 61.625 38C58.7961 31.4521 55.5787 29.0638 49.2852 28.5684Z" fill="white"/>
<path d="M29.213 106.042C33.9535 98.1908 41.4033 87.4954 42.3719 86.7944C43.3405 86.0934 46.1199 87.2944 45.0526 89.2389C43.9854 91.1834 42.9784 91.749 38.9836 92.8498L40.5371 94.1565L29.213 106.042Z" fill="white"/>
</svg>
